<svg width="600" height="450" viewBox="0 0 600 450" fill="none" xmlns="http://www.w3.org/2000/svg">
  <rect width="600" height="450" rx="36" fill="#EEF2FF"/>
  <rect x="48" y="48" width="504" height="158" rx="24" fill="#FFFFFF"/>
  <rect x="80" y="84" width="140" height="22" rx="11" fill="#4F46E5"/>
  <rect x="80" y="120" width="380" height="18" rx="9" fill="#CBD5E1"/>
  <rect x="80" y="150" width="320" height="18" rx="9" fill="#CBD5E1"/>
  <rect x="48" y="240" width="260" height="148" rx="24" fill="#FFFFFF"/>
  <rect x="80" y="278" width="192" height="22" rx="11" fill="#4F46E5"/>
  <rect x="80" y="314" width="310" height="14" rx="7" fill="#94A3B8"/>
  <rect x="80" y="338" width="240" height="14" rx="7" fill="#94A3B8"/>
  <rect x="376" y="240" width="176" height="148" rx="24" fill="#D8E2EF"/>
  <path d="M432 280C432 286.627 426.627 292 420 292C413.373 292 408 286.627 408 280C408 273.373 413.373 268 420 268C426.627 268 432 273.373 432 280Z" fill="#4F46E5"/>
  <path d="M472 320C472 329.941 464.941 337 455 337C445.059 337 438 329.941 438 320C438 310.059 445.059 303 455 303C464.941 303 472 310.059 472 320Z" fill="#4F46E5"/>
  <rect x="120" y="196" width="360" height="24" rx="12" fill="#C7D2FE"/>
  <rect x="120" y="230" width="270" height="14" rx="7" fill="#94A3B8"/>
  <rect x="120" y="254" width="210" height="14" rx="7" fill="#94A3B8"/>
</svg>
